<?xml version="1.0" encoding="UTF-8" standalone="no"?>
<!-- Created with Inkscape (http://www.inkscape.org/) -->

<svg
   xmlns:dc="http://purl.org/dc/elements/1.1/"
   xmlns:cc="http://creativecommons.org/ns#"
   xmlns:rdf="http://www.w3.org/1999/02/22-rdf-syntax-ns#"
   xmlns:svg="http://www.w3.org/2000/svg"
   xmlns="http://www.w3.org/2000/svg"
   xmlns:sodipodi="http://sodipodi.sourceforge.net/DTD/sodipodi-0.dtd"
   xmlns:inkscape="http://www.inkscape.org/namespaces/inkscape"
   width="210mm"
   height="297mm"
   viewBox="0 0 210 297"
   version="1.1"
   id="svg8"
   sodipodi:docname="Logo.svg.2018_12_17_00_03_30.0.svg"
   inkscape:version="0.92.3 (2405546, 2018-03-11)">
  <defs
     id="defs2" />
  <sodipodi:namedview
     id="base"
     pagecolor="#ffffff"
     bordercolor="#666666"
     borderopacity="1.0"
     inkscape:pageopacity="0.0"
     inkscape:pageshadow="2"
     inkscape:zoom="2.0000001"
     inkscape:cx="338.88662"
     inkscape:cy="778.64749"
     inkscape:document-units="mm"
     inkscape:current-layer="layer1"
     showgrid="false"
     inkscape:window-width="1920"
     inkscape:window-height="1018"
     inkscape:window-x="1358"
     inkscape:window-y="-8"
     inkscape:window-maximized="1"
     showguides="true"
     inkscape:guide-bbox="true">
    <inkscape:grid
       type="xygrid"
       id="grid4577" />
  </sodipodi:namedview>
  <metadata
     id="metadata5">
    <rdf:RDF>
      <cc:Work
         rdf:about="">
        <dc:format>image/svg+xml</dc:format>
        <dc:type
           rdf:resource="http://purl.org/dc/dcmitype/StillImage" />
      </cc:Work>
    </rdf:RDF>
  </metadata>
  <g
     inkscape:label="Layer 1"
     inkscape:groupmode="layer"
     id="layer1">
    <path
       style="fill:none;stroke:#eea513;stroke-width:3.30104399;stroke-linecap:butt;stroke-linejoin:miter;stroke-miterlimit:4;stroke-dasharray:none;stroke-opacity:1"
       d="m 108.04913,62.175773 c -0.47634,21.422234 -0.15947,37.593226 0.0682,45.372847 0.10331,3.52924 0.85221,7.76657 4.68752,10.58404 7.43589,5.65026 19.97814,6.65299 29.06233,3.70149 6.45629,-2.09769 10.9136,-8.27447 12.79707,-13.99167 1.85797,-5.63977 1.89738,-13.113206 -3.89503,-17.396703 -6.65735,-5.426735 -16.16824,-6.064733 -14.51397,-11.337047 0.58813,-3.535384 13.47753,-17.902036 5.44574,-28.47708 -4.58185,-6.553179 -11.43246,-8.685445 -20.40408,-8.198169 -4.26341,0.645876 -12.77778,3.668262 -13.11546,14.609836 z"
       id="path4579"
       inkscape:connector-curvature="0"
       sodipodi:nodetypes="cscsscccccc" />
    <path
       style="fill:#999999;stroke:#000000;stroke-width:2;stroke-miterlimit:4;stroke-dasharray:none;stroke-opacity:1"
       d="m 93.176738,44.051807 c -7.640126,0.03701 -1.840826,9.731671 -9.115374,12.077469 -7.274549,2.345785 -8.35387,-8.870489 -14.550755,-4.445574 -6.196885,4.424939 4.346131,8.883442 -0.166503,14.954366 -4.512629,6.070911 -12.127409,-2.326513 -14.514055,4.79613 -2.386644,7.122639 8.873294,4.642104 8.846256,12.119248 -0.02704,7.477162 -11.269136,5.10567 -8.933923,12.205421 2.335209,7.099753 10.010519,-1.371579 14.479396,4.655773 4.468883,6.02737 -6.105943,10.58807 0.05913,14.95306 6.165104,4.36498 7.324863,-6.86191 14.582698,-4.58658 7.257837,2.27533 1.388941,12.02638 9.02906,11.98934 7.602632,-0.0369 1.90299,-9.63397 9.014792,-12.0396 V 99.473956 A 19.043905,18.138325 2.2356617 0 1 89.035303,101.13142 19.043905,18.138325 2.2356617 0 1 74.417267,79.533499 19.043905,18.138325 2.2356617 0 1 97.034786,65.690852 19.043905,18.138325 2.2356617 0 1 101.90746,67.412944 V 55.93409 C 95.553109,53.637751 100.04731,45.188521 94.457773,44.1556 94.079302,44.08574 93.654245,44.049285 93.176738,44.051812 Z"
       id="path63"
       inkscape:connector-curvature="0" />
    <ellipse
       id="path3713-0-8-0"
       cx="130.15479"
       cy="103.13269"
       style="fill:#ffee18;fill-opacity:1;stroke:#ffd311;stroke-width:1.91185582;stroke-miterlimit:4;stroke-dasharray:none;stroke-opacity:1"
       rx="12.747367"
       ry="12.744042" />
    <ellipse
       style="fill:#ffff87;fill-opacity:1;stroke:none;stroke-width:5.41584158;stroke-linecap:round;stroke-miterlimit:4;stroke-dasharray:none;stroke-opacity:1"
       id="path4591-9"
       cx="126.81089"
       cy="99.27906"
       rx="4.2757754"
       ry="4.1619215" />
    <ellipse
       id="path3713-0-8-0-5"
       cx="125.41251"
       cy="59.536457"
       style="fill:#ffee18;fill-opacity:1;stroke:#ffd311;stroke-width:1.43652165;stroke-miterlimit:4;stroke-dasharray:none;stroke-opacity:1"
       rx="9.5454502"
       ry="9.6082726" />
    <ellipse
       style="fill:#ffff87;fill-opacity:1;stroke:none;stroke-width:4.14977074;stroke-linecap:round;stroke-miterlimit:4;stroke-dasharray:none;stroke-opacity:1"
       id="path4591-9-0"
       cx="123.01799"
       cy="56.246849"
       rx="3.2291577"
       ry="3.2354589" />
  </g>
</svg>
