<svg xmlns="http://www.w3.org/2000/svg" viewBox="0 0 30 30"><g transform="translate(0)"><g transform="translate(3.502 25.389)"><path d="M55.057,441.118l-.006-.006a.649.649,0,1,0-.9.938l.006.006a.649.649,0,1,0,.9-.938Z" transform="translate(-53.953 -440.932)"/></g><g transform="translate(3.502 19.772)"><path d="M55.057,339.118l-.006-.006a.649.649,0,1,0-.9.938l.006.006a.649.649,0,0,0,.9-.938Z" transform="translate(-53.953 -338.932)"/></g><g transform="translate(25.191 25.389)"><path d="M439.008,441.115l-.006-.006a.649.649,0,0,0-.893.943l.006.006a.649.649,0,1,0,.893-.942Z" transform="translate(-437.907 -440.932)"/></g><g transform="translate(25.191 19.772)"><path d="M439.008,339.115l-.006-.006a.649.649,0,0,0-.893.942l.006.006a.649.649,0,0,0,.893-.943Z" transform="translate(-437.907 -338.931)"/></g><g transform="translate(7.731 22.751)"><path d="M133.186,389.976h-.008a.649.649,0,0,0,0,1.3h.008a.649.649,0,0,0,0-1.3Z" transform="translate(-132.528 -389.976)"/></g><g transform="translate(0 2.432)"><path d="M30,52.578a4.647,4.647,0,0,0-4.1-4.592A4.626,4.626,0,0,0,23.739,44.5a3.383,3.383,0,0,0,.7-.534,3.608,3.608,0,0,0,.96-3.208.583.583,0,0,0-.483-.479,3.679,3.679,0,0,0-3.235.952,3.517,3.517,0,0,0-1.016,2.592,4.652,4.652,0,0,0-4.061,4.159,4.672,4.672,0,0,0-2.952,1.556,3.234,3.234,0,0,0-.187-.766,3.279,3.279,0,0,0-1.2-6.341H12.23a5.052,5.052,0,0,0,.286-1.931.582.582,0,0,0-.4-.522,3.329,3.329,0,0,0-2.209.248,4.938,4.938,0,0,0-1.461-2.579.59.59,0,0,0-.669-.09,4.9,4.9,0,0,0-2.4,2.86,2.928,2.928,0,0,0-1.277-.4.586.586,0,0,0-.59.387,3.511,3.511,0,0,0-.1,2.031l-.1,0a3.278,3.278,0,0,0-1.452,6.233,3.257,3.257,0,0,0,.534,3.38H.586A.584.584,0,0,0,0,52.629V64.482a.584.584,0,0,0,.586.581H29.414A.584.584,0,0,0,30,64.482V52.629c0-.009,0-.017,0-.025S30,52.587,30,52.578Zm-1.213-.53H21.881a3.5,3.5,0,0,1,6.907,0Zm-6.274-9.991a2.416,2.416,0,0,1,1.774-.668,2.376,2.376,0,0,1-.673,1.759,2.42,2.42,0,0,1-1.774.668A2.376,2.376,0,0,1,22.514,42.057Zm-1.26,2.895a3.488,3.488,0,0,1,3.467,3.04,4.675,4.675,0,0,0-3.467,2.344,4.676,4.676,0,0,0-3.467-2.344A3.489,3.489,0,0,1,21.254,44.952Zm-4.08,4.161a3.491,3.491,0,0,1,3.453,2.935H13.72A3.491,3.491,0,0,1,17.173,49.113ZM12.266,43.6a2.12,2.12,0,0,1,.288,4.223h0a2.143,2.143,0,0,1-1.665-.482,3.249,3.249,0,0,0-.308-2.923A2.144,2.144,0,0,1,12.266,43.6ZM7.789,48.3a2.161,2.161,0,1,1,.067,0H7.85Zm.055,3.746h-.4q.107-.125.2-.259Q7.737,51.923,7.844,52.048Zm-.787-2.121a2.139,2.139,0,0,1-4.278,0A2.09,2.09,0,0,1,3,48.987c.1.009.206.015.311.015a3.337,3.337,0,0,0,1.988-.66A3.319,3.319,0,0,0,6.98,49.364,2.1,2.1,0,0,1,7.057,49.927Zm1.232-.5a3.316,3.316,0,0,0,1.988-1.084A3.322,3.322,0,0,0,12.266,49h.027a2.1,2.1,0,0,1,.214.926,2.139,2.139,0,0,1-4.278,0A2.106,2.106,0,0,1,8.289,49.426ZM4.495,41.284a2.251,2.251,0,0,1,.795.534.589.589,0,0,0,.623.176.582.582,0,0,0,.406-.5,3.977,3.977,0,0,1,1.625-2.682,3.9,3.9,0,0,1,.9,2.3.58.58,0,0,0,.3.515.591.591,0,0,0,.6-.014,4.123,4.123,0,0,1,1.6-.57,4.09,4.09,0,0,1-.556,1.739,3.306,3.306,0,0,0-1.008.773,3.326,3.326,0,0,0-3.974,0,3.333,3.333,0,0,0-1.023-.778A2.564,2.564,0,0,1,4.495,41.284ZM1.172,45.718A2.133,2.133,0,0,1,3.311,43.6,2.159,2.159,0,0,1,5,44.415a3.249,3.249,0,0,0-.308,2.923,2.122,2.122,0,0,1-1.38.5,2.153,2.153,0,0,1-.478-.054h0A2.128,2.128,0,0,1,1.172,45.718ZM28.828,57.974H10.684a.581.581,0,1,0,0,1.162H28.828V63.9H1.172V59.136H6.016a.581.581,0,1,0,0-1.162H1.172V53.21H28.828Z" transform="translate(0 -37.495)"/></g><g transform="translate(15.97 2.971)"><path d="M283.824,46.86a3.626,3.626,0,0,0-5.122,0,.649.649,0,0,0,.918.918,2.326,2.326,0,0,1,3.286,0,.649.649,0,0,0,.918-.918Z" transform="translate(-278.512 -45.801)"/></g><g transform="translate(13.78)"><path d="M255.642,1.953a6.6,6.6,0,0,0-9.326,0,.649.649,0,1,0,.918.918,5.3,5.3,0,0,1,7.49,0,.649.649,0,1,0,.918-.918Z" transform="translate(-246.125 -0.025)"/></g><g transform="translate(18.137 5.354)"><path d="M312.007,91.976a.65.65,0,1,0,.19.459A.654.654,0,0,0,312.007,91.976Z" transform="translate(-310.899 -91.786)"/></g></g></svg>