<svg height="512pt" viewBox="0 0 512.0001 512" width="512pt" xmlns="http://www.w3.org/2000/svg"><path d="m134 265.792969c0-11.046875 8.953125-20 20-20h92v-140c0-11.046875 8.953125-20 20-20 11.042969 0 20 8.953125 20 20v160c0 11.046875-8.957031 20-20 20h-112c-11.046875 0-20-8.953125-20-20zm369.640625 59.683593c-8.984375-6.433593-21.476563-4.363281-27.902344 4.617188l-98.582031 137.699219c-2.691406 3.125-6.066406 3.796875-7.875 3.917969-1.851562.125-5.421875-.113282-8.566406-3.0625l-63.707032-62.171876c-7.90625-7.714843-20.566406-7.558593-28.28125.347657-7.714843 7.902343-7.5625 20.566406.34375 28.28125l63.820313 62.28125c.058594.058593.117187.117187.179687.171875 9.566407 9.109375 22.339844 14.175781 35.480469 14.175781 1.128907 0 2.261719-.039063 3.390625-.113281 14.316406-.953125 27.679688-7.914063 36.667969-19.097656.230469-.289063.453125-.585938.671875-.886719l98.980469-138.257813c6.429687-8.980468 4.359375-21.476562-4.621094-27.902344zm-252.214844 146.269532c-116.582031-2.417969-211.425781-99.292969-211.425781-215.953125 0-53.871094 20.171875-105.542969 56-145.082031v41.082031c0 11.046875 8.953125 20 20 20s20-8.953125 20-20v-46c0-33.082031-26.917969-60-60-60h-46c-11.046875 0-20 8.953125-20 20s8.953125 20 20 20h34.632812c-41.371093 46.597656-64.632812 107.027343-64.632812 170 0 67.4375 26 131.089843 73.210938 179.234375 47.144531 48.070312 110.140624 75.3125 177.386718 76.707031.140625.003906.28125.003906.421875.003906 10.851563 0 19.761719-8.683593 19.988281-19.585937.226563-11.042969-8.539062-20.179688-19.582031-20.40625zm13.738281-431.761719c115.984376 4.835937 206.835938 99.628906 206.835938 215.808594 0 3.046875-.066406 6.132812-.191406 9.179687-.460938 11.035156 8.109375 20.355469 19.144531 20.816406.285156.011719.566406.015626.851563.015626 10.660156 0 19.519531-8.414063 19.96875-19.164063.148437-3.597656.226562-7.246094.226562-10.847656 0-66.492188-25.375-129.5-71.445312-177.414063-45.941407-47.777344-107.636719-75.605468-173.722657-78.3593748-11.03125-.4765622-20.355469 8.1132808-20.816406 19.1484378-.457031 11.035156 8.113281 20.355469 19.148437 20.816406zm0 0"/></svg>